<?xml version="1.0" encoding="utf-8"?>
<!-- Generator: Adobe Illustrator 27.2.0, SVG Export Plug-In . SVG Version: 6.00 Build 0)  -->
<svg version="1.1" id="Laag_1" xmlns="http://www.w3.org/2000/svg" xmlns:xlink="http://www.w3.org/1999/xlink" x="0px" y="0px"
	 viewBox="0 0 110 42" style="enable-background:new 0 0 110 42;" xml:space="preserve">
<style type="text/css">
	.st0{fill:#00C300;}
</style>
<g id="kpn_logo_00000106118444337680772500000008831362196428316330_">
	<g>
		<path class="st0" d="M100.7,13.3c-3.4,0-6.2,0.6-8.8,1.6V32h5.7V18.3c0.8-0.4,1.9-0.6,2.9-0.6c3.1,0,3.7,1.9,3.7,5.4V32h5.7v-9.7
			C110,16.8,108.2,13.3,100.7,13.3z"/>
		<rect x="46" y="6.9" class="st0" width="5.7" height="25.1"/>
		<polygon class="st0" points="64.5,13.9 58,13.9 51.7,22.1 58.3,31.9 65.1,31.9 58,21.9 		"/>
		<path class="st0" d="M77.1,13.2c-3,0-6.2,0.7-8.6,1.6V39h5.7v-6.9c7.2,1.3,13-1.7,12.9-9.4C87.1,16.6,83.9,13.2,77.1,13.2z
			 M76.8,28.1c-0.9,0-2-0.2-2.6-0.4v-9.6c3.4-1.4,7-0.4,7,4.6C81.2,26.2,79.9,28.1,76.8,28.1z"/>
		<g>
			<path class="st0" d="M14.5,30.9c3.7-1,7.7-1,11.5,0.1l0.9-2.6c-4.4-1.3-9.2-1.3-13.6,0l0.9,2.6L14.5,30.9z"/>
			<polygon class="st0" points="17.9,14.1 20,16.3 22.1,14.1 20,11.9 			"/>
			<path class="st0" d="M14.4,20.2c-0.2,1.4,0.6,3.5,2.1,5.9c1-0.2,1.9-0.2,2.9-0.2l-0.3-0.5c-1.6-3.1-1.9-4-1.9-4.7
				c0-1,0.8-1.1,1.9-1v-2.4C16.6,16.5,14.6,17.9,14.4,20.2z"/>
			<path class="st0" d="M12.7,20.1c-1.7-0.1-3,1-3,2.5c-0.1,1.1,0.6,2.4,2.7,4.2c0.9-0.3,1.8-0.5,2.7-0.7c-1.6-1.6-2.9-2.9-2.7-3.4
				c0-0.1,0-0.4,0.5-0.5l0.4-0.1c-0.2-0.7-0.3-1.4-0.2-2.1H12.7z"/>
			<path class="st0" d="M20.6,25.9c0.9,0,1.9,0.1,2.9,0.2c1.5-2.4,2.3-4.5,2.1-5.9c-0.3-2.3-2.3-3.7-4.7-2.8v2.4
				c1.1-0.1,1.9,0,1.9,1c0,0.7-0.3,1.6-1.9,4.7L20.6,25.9z"/>
			<path class="st0" d="M25.3,25.7l-0.5,0.5c0.9,0.2,1.9,0.4,2.7,0.7c2.1-1.8,2.8-3.1,2.7-4.2c0-1.7-1.5-2.7-3.3-2.5
				c0,0.7,0,1.4-0.2,2.1l0.4,0.1c0.5,0.1,0.5,0.4,0.5,0.5C27.6,23.3,27.3,23.8,25.3,25.7z"/>
			<path class="st0" d="M6.4,20.6c0.5-0.3,1.5-1,2.7-1.6c-1-2.4-1.6-4.6-1.6-6.3c0-3.6,0.9-6.6,2.4-8.1c4-4,11.8,1.1,15.4,6.6
				c1.1-0.2,2.4-0.4,3.5-0.4C25.4,4.4,18.1,0,13.5,0C7.3,0,4.5,6.4,4.5,12.7C4.5,15.8,5.5,18.2,6.4,20.6z"/>
			<path class="st0" d="M29.3,12.7c-1.8,0-2.9,0.3-2.9,0.3c0.4,0.9,0.7,2,0.8,3.1c0.7-0.1,1.4-0.2,2.1-0.2c4,0,6.4,2.3,6.5,5.1
				c0,1.5-0.8,3.5-1.6,5.4c-0.4,1-1.1,2.9-1.5,4.5c-0.7,2.7-2.6,10.2-6.9,7.3c-1,0.4-2.3,1.1-3.4,1.3c2,1.8,3.4,2.4,5.4,2.4
				c5.3,0,7.2-7.5,7.9-10.3c0.7-3.1,3.3-7.4,3.2-10.7C38.9,16,34.4,12.5,29.3,12.7z"/>
			<path class="st0" d="M24.3,36.9c-0.8-0.8-1.6-1.6-2.3-2.4c-5.5,2.1-12.5-0.4-16.5-4.3c-1.4-1.4-2.3-3.1-2.3-4.3
				c0-1.8,0.6-3,1.8-4c-0.4-1-0.8-2-1.2-3c-2.5,1.6-3.8,4-3.8,7c0,2.1,1.1,4.5,3.2,6.6C7.4,36.7,17.1,40.6,24.3,36.9z"/>
		</g>
	</g>
</g>
</svg>
