<svg width="110" height="30" viewBox="0 0 110 30" fill="none" xmlns="http://www.w3.org/2000/svg">
<path d="M95.2507 0.740829L87.8453 19.5397L80.4399 0.740829C80.2642 0.295746 79.8309 0 79.3507 0H65.884V29.2818H73.2044V8.51514C73.2044 7.22088 74.9906 6.88414 75.465 8.0847L83.5233 28.538C83.699 28.986 84.1324 29.2788 84.6126 29.2788H91.078C91.5582 29.2788 91.9916 28.9831 92.1673 28.538L100.226 8.0847C100.7 6.88122 102.486 7.22088 102.486 8.51514V29.2818H109.807V0H96.34C95.8597 0 95.4264 0.295746 95.2507 0.740829Z" fill="#FF5E4F"/>
<path d="M7.32045 20.7901V0H0V21.9613C0 26.0051 3.27663 29.2818 7.32045 29.2818H29.2818V21.9613H8.49172C7.84459 21.9613 7.32045 21.4372 7.32045 20.7901Z" fill="#FF5E4F"/>
<path d="M60.0277 0H23.4254V7.32044H36.3094C37.2786 7.32044 38.0663 8.10812 38.0663 9.07735V29.2818H45.3868V9.07735C45.3868 8.10812 46.1744 7.32044 47.1437 7.32044H60.0277V0Z" fill="#FF5E4F"/>
</svg>
